<svg width="173" height="40" viewBox="0 0 173 40" fill="none" xmlns="http://www.w3.org/2000/svg"><path d="M60.245 22.663l5.04-11.927c.555-1.32 1.02-2.443 1.38-3.323 0 0 2.223-5.78 8.479-5.78 7.115 0 8.763 5.556 8.763 5.556l9.264 25.801h-6.014l-.763-1.994-7.751-21.669c-.029-.064-.074-.177-.106-.236-.27-.505-1-1.785-3.206-1.785-.133 0-.265.006-.394.016-1.284.099-2.396.87-2.912 1.968a74.814 74.814 0 00-.955 2.142c-.13.299-.253.6-.373.903-.646 1.64-5.16 12.343-5.517 13.129-3.73 8.197-12.025 7.526-12.025 7.526-7.148 0-12.965-5.236-12.965-11.672V1.646h5.66l.047 18.364c0 4.344 3.049 7.329 7.17 7.329 0 0 5.05.41 7.178-4.676z" fill="#F0411E"/><path d="M28.861 17.625c-.198 6.093-5.143 11.039-11.236 11.237-6.716.218-12.227-5.292-12.009-12.008.199-6.094 5.144-11.04 11.237-11.238 6.717-.218 12.227 5.292 12.008 12.01zM17.374.001C7.807-.073 0 7.688 0 17.239c0 9.506 7.733 17.24 17.24 17.24l.045-.001 1.775 5.078h5.661l-2.078-5.946c6.892-2.281 11.872-8.801 11.835-16.457C34.432 7.758 26.769.073 17.374.001z" fill="#1E3534"/><path d="M133.602 24.878c0-.703-.307-1.297-.788-1.732a2.7 2.7 0 00-.789-.486l-1.311-.541-16.29-6.198c-2.689-.904-4.151-3.682-4.23-6.372a8.306 8.306 0 01-.004-.224c-.001-2.044.813-3.971 2.292-5.425a7.617 7.617 0 015.388-2.19l19.726-.003V7.31l-19.864.003c-1.035 0-1.872.896-1.872 1.93 0 .528.219 1.005.572 1.345a1.9 1.9 0 00.655.399l17.14 6.414a7.524 7.524 0 013.549 2.717 8.41 8.41 0 011.512 4.798c0 1.263-.343 2.485-.93 3.585-1.492 2.795-4.45 4.495-7.618 4.49l-.492-.001h-18.27v-5.621l18.796-.028a3.4 3.4 0 001.023-.154c.752-.237 1.805-.834 1.805-2.309z" fill="#1E3534"/><path d="M98.852 32.99h5.691V1.645h-5.691v31.347z" fill="#1E3534"/><path d="M150.917 8.632a2.392 2.392 0 012.003-1.319l20.062-.007.018-5.658h-19.926V1.64c-.085 0-.17.004-.254.007h-.061c-4.292.167-7.751 3.747-7.751 8.066v15.25c0 4.433 3.603 8.027 8.049 8.027h19.911v-5.663l-19.911.016c-.47 0-.908-.135-1.278-.37-.688-.436-1.085-1.214-1.085-2.03V19.93h13.093v-5.644h-13.093l-.012-4.59c-.002-.368.07-.735.235-1.063z" fill="#1E3534"/></svg>