<svg xmlns="http://www.w3.org/2000/svg" width="1067" height="1067" viewBox="0 0 1067 1067" version="1.1">
	<path d="M 0 533.500 L 0 1067 533 1067 L 1066 1067 1066 533.500 L 1066 0 533 0 L 0 0 0 533.500 M 518.531 218.113 C 505.842 219.962, 501.280 222.388, 442.771 258.394 C 316.583 336.051, 271.524 364.623, 266.586 370.116 C 242.598 396.796, 245.503 438.929, 273.166 465.561 C 282.263 474.319, 281.479 473.858, 344 507.282 C 450.756 564.357, 463.406 570.992, 464.055 570.256 C 468.425 565.298, 544.114 458.532, 543.432 458.288 C 542.919 458.104, 523.297 447.474, 499.828 434.665 L 457.155 411.376 491.994 389.689 C 511.156 377.761, 527.445 367.767, 528.192 367.480 C 528.939 367.193, 542.452 373.943, 558.222 382.479 C 573.991 391.016, 587.255 397.980, 587.697 397.955 C 589.154 397.874, 669.179 285.777, 668.330 285.006 C 665.752 282.663, 553.020 222.691, 548.044 221.015 C 542.198 219.045, 530.479 216.939, 526.500 217.142 C 525.400 217.198, 521.814 217.635, 518.531 218.113 M 712.242 311.250 C 705.552 319.592, 632.984 421.453, 633.223 422.168 C 633.748 423.744, 814.466 520.925, 814.858 519.842 C 815.331 518.534, 812.156 403.219, 811.434 395.500 C 810.580 386.368, 809.140 381.275, 804.864 372.263 C 800.697 363.481, 792.029 353.154, 784.554 348.068 C 779.514 344.637, 715.492 310, 714.193 310 C 713.671 310, 712.794 310.563, 712.242 311.250 M 548 538.651 C 526.825 568.101, 509.203 592.714, 508.841 593.348 C 508.415 594.092, 526.573 604.715, 560.146 623.362 C 588.726 639.236, 611.973 652.336, 611.805 652.474 C 609.469 654.394, 541.188 696.314, 540.384 696.322 C 539.770 696.328, 522.309 687.191, 501.583 676.018 C 479.763 664.256, 463.538 656.081, 463.043 656.601 C 461.605 658.114, 382.107 768.440, 382.310 768.641 C 382.414 768.744, 412.200 784.875, 448.500 804.488 C 484.800 824.100, 517.875 841.338, 522 842.794 C 528.496 845.087, 531.107 845.444, 541.500 845.460 C 560.131 845.489, 565.535 843.182, 603.662 818.924 C 619.535 808.825, 679.151 772, 679.627 772 C 680.005 772, 760.045 722.558, 785.500 706.601 C 801.335 696.674, 809.980 686.391, 815.394 671.044 C 818.067 663.467, 818.411 661.199, 818.432 651 C 818.460 637.172, 816.826 630.223, 810.535 617.411 C 805.204 606.552, 796.115 596.199, 786.191 589.680 C 782.511 587.263, 769.375 579.881, 757 573.276 C 715.664 551.213, 588.411 484.999, 587.449 485.053 C 586.927 485.082, 569.175 509.201, 548 538.651 M 254 547.098 C 254 554.425, 256.923 655.251, 257.391 664.057 C 258.225 679.759, 262.881 692.443, 271.901 703.582 C 278.638 711.900, 285.044 716.218, 313.291 731.478 L 338.081 744.871 343.354 737.685 C 359.904 715.131, 418.087 633.938, 418.533 632.774 C 418.912 631.787, 395.616 618.741, 337.149 587.196 C 292.096 562.888, 254.956 543, 254.617 543 C 254.278 543, 254 544.844, 254 547.098" stroke="none" fill="black" fill-rule="evenodd"/>
</svg>