<svg width="164" height="40" viewBox="0 0 164 40" fill="none" xmlns="http://www.w3.org/2000/svg">
<path d="M62.9297 15.2784H55.2105V18.836H62.0523V21.0286H55.2105V24.7235H63.0251V26.9161H52.832V13.0858H62.9278V15.2784H62.9297ZM76.9069 26.9161L73.3211 21.6802L69.7142 26.9161H66.9676L71.9363 19.8821L67.1603 13.0858H69.987L73.3783 18.0452L76.7887 13.0858H79.5372L74.7802 19.8434L79.7299 26.9161H76.9031H76.9069ZM96.4289 22.7456C96.078 23.6156 95.584 24.3755 94.9469 25.0271C94.3117 25.6787 93.5564 26.1968 92.6867 26.5777C91.815 26.9606 90.8537 27.15 89.8008 27.15C88.7479 27.15 87.7866 26.9625 86.9169 26.5874C86.0452 26.2123 85.2994 25.7019 84.6757 25.0561C84.052 24.4103 83.5656 23.6524 83.2146 22.7842C82.8637 21.9161 82.6882 20.9938 82.6882 20.0174C82.6882 19.041 82.8637 18.1206 83.2146 17.2506C83.5656 16.3805 84.0577 15.6206 84.6967 14.9691C85.3318 14.3175 86.0852 13.7993 86.9569 13.4184C87.8286 13.0356 88.7899 12.8461 89.8428 12.8461C90.8956 12.8461 91.857 13.0336 92.7267 13.4087C93.5984 13.7838 94.3442 14.2943 94.9679 14.9401C95.5916 15.5858 96.0799 16.3438 96.4289 17.2119C96.7799 18.082 96.9554 19.0043 96.9554 19.9787C96.9554 20.9532 96.7799 21.8755 96.4289 22.7456ZM94.1 18.1129C93.8731 17.5135 93.5545 16.9896 93.1444 16.5429C92.7343 16.0963 92.2442 15.7405 91.6738 15.4756C91.1016 15.2127 90.4779 15.0812 89.8027 15.0812C89.1275 15.0812 88.5076 15.2088 87.9411 15.466C87.3746 15.7231 86.8921 16.0731 86.4896 16.5139C86.0871 16.9548 85.7724 17.4768 85.5435 18.0742C85.3166 18.6736 85.2021 19.3097 85.2021 19.9807C85.2021 20.6516 85.3166 21.2877 85.5435 21.8871C85.7705 22.4865 86.089 23.0104 86.4991 23.4571C86.9092 23.9056 87.3994 24.2614 87.9716 24.5244C88.5438 24.7873 89.1676 24.9188 89.8428 24.9188C90.518 24.9188 91.1379 24.7892 91.7025 24.534C92.267 24.2769 92.7534 23.9288 93.1559 23.4861C93.5583 23.0452 93.8731 22.5251 94.1 21.9258C94.327 21.3264 94.4415 20.6903 94.4415 20.0193C94.4415 19.3484 94.327 18.7123 94.1 18.1129ZM109.258 13.0452H111.285L114.637 23.3391L117.893 13.0858H120.407L115.65 27.0147H113.584L110.231 17.0766L106.879 27.0147H104.812L100.057 13.0858H102.649L105.903 23.3391L109.256 13.0452H109.258ZM136.549 26.9161H134.014L132.629 23.577H126.176L124.773 26.9161H122.316L128.32 12.9872H130.542L136.545 26.9161H136.549ZM129.394 15.8894L127.054 21.4211H131.752L129.394 15.8894ZM144.796 26.9161H142.38V15.3384H138.052V13.0858H149.122V15.3384H144.796V26.9161ZM159.674 26.9161H157.257V15.3384H152.929V13.0858H164.002V15.3384H159.674V26.9161Z" fill="white"/>
<path d="M33.6878 5.85654L33.6688 5.83913C30.1325 2.21578 25.1962 0.0908739 20.1207 0.00580046C19.9566 0.00193349 19.7945 0 19.6305 0C14.658 0 9.75027 1.99343 6.16822 5.46984C2.3363 9.13766 0.0894143 14.2923 0.00167496 19.6133C-0.0326578 22.3299 0.461353 25.0425 1.43411 27.4575C2.42595 29.9246 3.93278 32.2332 5.79056 34.1377C7.67505 36.0228 9.95436 37.5483 12.3786 38.5499C14.6923 39.4992 17.2768 40 19.8517 40H20.1169C25.3698 39.9053 30.4529 37.6276 34.0636 33.749C37.6209 29.9845 39.5854 24.8299 39.4557 19.6114C39.3718 14.4548 37.2699 9.44122 33.6859 5.85654H33.6878ZM32.9573 32.6237C29.6633 35.8101 25.1581 37.6353 20.5956 37.6353C20.4392 37.6353 20.2809 37.6353 20.1207 37.6295C15.4514 37.5464 10.9081 35.5839 7.65407 32.2448C4.36575 28.9501 2.43167 24.3445 2.34965 19.6075C2.22758 14.8067 4.02624 10.0657 7.28785 6.60093C10.6086 3.02398 15.2874 0.92034 20.1188 0.827533H20.3744C22.7529 0.827533 25.1314 1.28577 27.2504 2.15777C29.4859 3.07811 31.5859 4.48569 33.3254 6.2239L33.3426 6.2413C35.0497 8.00077 36.4306 10.1237 37.3367 12.3821C38.2293 14.6114 38.6852 17.1114 38.6508 19.6114C38.5612 24.5108 36.486 29.2537 32.9573 32.6237ZM26.991 12.6431L26.9853 12.6373C25.2076 10.8063 22.709 9.70031 20.1264 9.60557C17.4809 9.49729 14.8392 10.4602 12.8726 12.2506C10.8279 14.0816 9.55763 16.8329 9.4737 19.6094C9.43746 21.075 9.68351 22.5174 10.1852 23.7819C10.7078 25.1005 11.5051 26.3341 12.4912 27.3492C13.4983 28.3469 14.7152 29.1531 16.0084 29.681C17.1852 30.1527 18.5109 30.4022 19.8441 30.4022C19.9376 30.4022 20.031 30.4022 20.1264 30.3983C22.8635 30.3094 25.5739 29.0217 27.3782 26.9548C29.1502 24.9575 30.102 22.2776 29.9913 19.6056C29.8979 16.9799 28.805 14.4432 26.9949 12.6431H26.991ZM26.2682 25.8295C24.5878 27.3376 22.3504 28.1477 20.1264 28.0298C17.9501 27.9389 15.8443 27.0012 14.3509 25.4563C12.8326 23.9462 11.9094 21.8117 11.8198 19.6036C11.7168 17.3492 12.5083 15.0812 13.9904 13.3817C15.5105 11.6164 17.8051 10.5124 20.1245 10.4273C20.2141 10.4254 20.3038 10.4234 20.3915 10.4234C21.5264 10.4234 22.646 10.6323 23.6283 11.0267C24.7308 11.4733 25.7684 12.1597 26.6286 13.0104C27.4698 13.8844 28.1469 14.9381 28.5875 16.0538C29.011 17.1307 29.215 18.3585 29.1807 19.6056C29.0987 21.9606 28.0096 24.2865 26.2682 25.8295ZM30.3404 9.24981C27.6834 6.51392 23.9583 4.89559 20.1226 4.80472C16.2201 4.68484 12.3538 6.15429 9.51757 8.85924C6.57068 11.6338 4.82734 15.551 4.73578 19.6094C4.69954 21.6995 5.07148 23.7761 5.80773 25.6187C6.56496 27.5116 7.71701 29.2827 9.13801 30.7425C10.5838 32.1848 12.331 33.3507 14.1906 34.1145C15.934 34.8241 17.889 35.2011 19.846 35.2011C19.9376 35.2011 20.0272 35.2011 20.1188 35.1991C24.1243 35.1005 27.9867 33.3353 30.7162 30.3538C33.3865 27.4807 34.8456 23.5634 34.7197 19.6094C34.632 15.7193 33.0355 11.9451 30.3366 9.24981H30.3404ZM29.6118 29.2285C27.1951 31.5236 23.903 32.8403 20.5823 32.8403C20.4297 32.8403 20.2771 32.8364 20.1245 32.8326C16.7027 32.7456 13.3781 31.2954 11.0053 28.8534C8.60203 26.4501 7.17532 23.082 7.08758 19.6094C6.96932 16.0712 8.26443 12.5677 10.641 9.99613C13.0825 7.31825 16.5405 5.72506 20.1245 5.63032C20.2122 5.63032 20.3 5.62838 20.3858 5.62838C22.1425 5.62838 23.8916 5.96288 25.4442 6.59513C27.1131 7.27958 28.6829 8.32753 29.9837 9.62297L29.9971 9.6365C31.2693 10.9532 32.2955 12.5387 32.9669 14.2227C33.6249 15.8778 33.953 17.7417 33.9205 19.6133C33.829 23.2483 32.2592 26.7537 29.6156 29.2324L29.6118 29.2285Z" fill="url(#paint0_linear_1978_216)"/>
<defs>
<linearGradient id="paint0_linear_1978_216" x1="5.78865" y1="34.1338" x2="34.0652" y2="6.23909" gradientUnits="userSpaceOnUse">
<stop stop-color="#FF7212"/>
<stop offset="1" stop-color="#FF1010"/>
</linearGradient>
</defs>
</svg>
